<svg xmlns="http://www.w3.org/2000/svg" fill="none" viewBox="0 0 3000 3000" id="Womanworkingoncomputer"><path fill="#fffae7" d="M585.743 1133.81C545.127 1498.67 486.459 1548.22 247.272 1827.49C122.765 1972.87 159.65 2193.51 233.352 2377.49C297.318 2537.17 464.644 2620.28 636.86 2620.28H1998.03C2128.71 2620.28 2609.32 2243.5 2702.31 2151.81C3072.38 1786.95 2860.27 1052.73 2598.52 908.583C2336.77 764.441 2038.91 1039.21 1569.57 615.794C1100.22 192.375 623.351 795.972 585.743 1133.81Z" class="colore7e8ff svgShape"></path><path fill="#fffae7" d="M1988.05 704.913C1848.52 664.578 1731.02 553.656 1689.72 503.236C1620.87 361.146 1951.33 443.65 2056.9 503.236C2162.46 562.823 2304.75 581.157 2277.21 645.327C2249.67 709.497 2162.46 755.333 1988.05 704.913Z" class="colore7e8ff svgShape"></path><path fill="#f7f6f2" d="M1887.12 2620.28H1449.41C1327.57 2575.24 1165.13 2521.19 1205.74 2417.59C1246.35 2313.99 1449.41 2453.62 1503.56 2354.53C1557.71 2255.44 1120 2241.92 1165.13 2115.81C1210.25 1989.69 1485.51 2151.84 1449.41 2030.23C1413.31 1908.61 1106.46 1953.65 1120 1827.54C1133.54 1701.42 1363.67 1908.61 1390.75 1764.48C1417.82 1620.34 1169.64 1363.6 1363.67 1318.56C1557.71 1273.52 1503.56 1741.96 1571.25 1764.48C1638.93 1787 1702.11 1543.77 1796.87 1651.87C1891.63 1759.97 1729.18 2003.2 1796.87 2115.81C1864.56 2228.41 1959.32 1809.52 2067.62 2003.2C2154.26 2158.15 1983.38 2479.15 1887.12 2620.28Z" class="colorffffff svgShape"></path><path fill="#b0b0b0" d="M2275.86 1504.48L2293.86 1598.96L2275.86 1697.94C2229.37 1703.94 2134.59 1715.94 2127.39 1715.94C2120.19 1715.94 2067.4 1670.95 2041.9 1648.45L2068.9 1504.48C1993.31 1479.28 1968.42 1368 1965.42 1315.51C1947.42 1099.55 2091.39 1072.55 2118.39 1072.55C2145.38 1072.55 2316.35 1072.55 2338.85 1252.52C2356.85 1396.5 2304.36 1480.48 2275.86 1504.48Z" class="colorefcb96 svgShape"></path><path fill="#2c2c2c" d="M2155.79 1504.48C2113.89 1518.44 2078.68 1510.3 2064.13 1504.48L2055.4 1556.85C2111.27 1549.87 2144.15 1520.48 2155.79 1504.48Z" class="color032068 svgShape"></path><path fill="#f7f6f2" d="M2167.88 1657.45C2257.86 1657.45 2295.36 1603.46 2307.36 1576.46L2338.85 1585.46L2140.88 2611.28H2109.39H1627.98L1929.42 1639.45L2032.9 1576.46H2046.4C2052.4 1603.46 2077.9 1657.45 2167.88 1657.45Z" class="colorffffff svgShape"></path><path fill="#2c2c2c" fill-rule="evenodd" d="M2302.31 1565.66L2299.13 1572.81C2288.12 1597.59 2253.29 1648.45 2167.88 1648.45C2124.83 1648.45 2098.23 1635.6 2081.73 1620.45C2065.07 1605.15 2057.9 1586.74 2055.19 1574.51L2053.62 1567.46H2030.38L1921.84 1633.54L1615.76 2620.28H2148.31L2349.25 1579.07L2302.31 1565.66ZM2039.46 1585.46C2043.71 1599.68 2052.47 1618.01 2069.56 1633.71C2089.81 1652.31 2120.95 1666.45 2167.88 1666.45C2255.28 1666.45 2296.21 1617.64 2312.15 1587.19L2328.45 1591.85L2133.46 2602.28H1640.19L1937.01 1645.37L2035.43 1585.46H2039.46Z" clip-rule="evenodd" class="color032068 svgShape"></path><path fill="#f7b832" d="M2158.88 2111.87C2184.08 1949.9 2271.36 1684.44 2311.85 1571.96 2388.34 1585.46 2558.41 1637.65 2626.8 1738.43 2695.19 1839.22 2787.27 2173.36 2824.76 2327.83 2865.26 2467.3 2865.26 2620.28 2712.28 2620.28H2019.41C1947.42 2480.8 1969.92 2413.31 1992.41 2386.32 2010.41 2364.72 2090.25 2347.33 2127.92 2341.33 2137.71 2260.74 2148.48 2178.76 2158.88 2111.87zM1866.44 2111.87C1895.23 1931.9 1992.41 1676.95 2037.41 1571.96 1984.91 1574.96 1861.93 1599.86 1789.95 1675.45 1699.96 1769.93 1555.99 2120.87 1528.99 2156.86 1475 2219.85 1060.75 2387.57 1052.08 2417.81 1016.08 2467.3 1056.58 2597.78 1101.57 2620.28H1807.95C1815.44 2522.79 1837.64 2291.84 1866.44 2111.87z" class="colorf4ad5e svgShape"></path><path fill="#2c2c2c" d="M2410.84 2273.84L2343.35 1999.39 2361.35 2269.34 2027.14 2353.9C2002 2360.26 1979 2375.9 1971.69 2400.78 1949.09 2477.76 1983.39 2566.91 2010.41 2597.78 1982.85 2566.29 1983.41 2413.31 2014.91 2390.82 2040.1 2372.82 2352.35 2314.33 2505.32 2287.34L2410.84 2273.84zM1740.46 1927.4L1573.99 2620.28H1502L1740.46 1927.4z" class="color032068 svgShape"></path><path fill="#b0b0b0" d="M1695.46 2620.28C1695.46 2497.9 1876.93 2461.31 1965.42 2458.31 1965.42 2519.5 1996.91 2579.78 2023.91 2620.28H1695.46zM822.62 2620.28C822.62 2511.5 965.505 2474.47 1043.08 2471.8 1043.08 2526.19 1078.66 2594.95 1097.07 2620.28H822.62z" class="colorefcb96 svgShape"></path><path fill="#2c2c2c" d="M2302.86 1275.02C2320.85 1325.41 2271.36 1356 2244.37 1365L2289.36 1594.46 2298.36 1576.46C2401.84 1585.46 2497.82 1630.45 2536.81 1657.45 2559.31 1517.97 2473.83 1459.48 2424.33 1351.5 2374.84 1243.52 2415.34 991.567 2163.38 991.567 1961.82 991.567 1932.42 1171.54 1942.92 1261.52 2032.9 1236.32 2085.4 1143.04 2100.39 1099.55 2109.39 1122.04 2185.88 1324.51 2212.87 1275.02 2239.87 1225.53 2280.36 1212.03 2302.86 1275.02zM1879.93 1616.96C1941.12 1555.77 1965.42 1414.49 1969.92 1351.5 1984.31 1455.88 2041.9 1496.98 2068.9 1504.48L2055.4 1576.46C1976.21 1572.86 1905.43 1601.96 1879.93 1616.96zM2649.29 2620.28C2670.89 2476.3 2779.77 2384.82 2833.76 2359.32 2862.93 2476.96 2856.26 2620.28 2730.28 2620.28H2649.29z" class="color032068 svgShape"></path><path fill="#f7f6f2" d="M524.127 847.09C524.127 826.614 540.812 810.016 561.395 810.016H1263.81C1284.39 810.016 1301.08 826.614 1301.08 847.09V1226.03C1301.08 1246.5 1284.39 1263.1 1263.81 1263.1H561.395C540.812 1263.1 524.127 1246.5 524.127 1226.03V847.09Z" class="colorffffff svgShape"></path><path fill="#2c2c2c" fill-rule="evenodd" d="M516.674 847.09C516.674 822.519 536.696 802.601 561.395 802.601H1263.81C1288.51 802.601 1308.53 822.519 1308.53 847.09V1226.03C1308.53 1250.6 1288.51 1270.52 1263.81 1270.52H561.395C536.696 1270.52 516.674 1250.6 516.674 1226.03V847.09ZM561.395 817.431C544.929 817.431 531.581 830.709 531.581 847.09V1226.03C531.581 1242.41 544.929 1255.69 561.395 1255.69H1263.81C1280.28 1255.69 1293.63 1242.41 1293.63 1226.03V847.09C1293.63 830.71 1280.28 817.431 1263.81 817.431H561.395Z" clip-rule="evenodd" class="color032068 svgShape"></path><path fill="#2c2c2c" d="M1066.51 1018.58L877.771 1177.82V1223.36C877.771 1243.84 894.456 1260.44 915.039 1260.44H1263.81C1284.39 1260.44 1301.08 1243.84 1301.08 1223.36V1160.45L1113.27 1017.41C1099.35 1006.81 1079.89 1007.29 1066.51 1018.58Z" class="color032068 svgShape"></path><path fill="#f7b832" d="M968.045 950.862C968.045 978.602 945.439 1001.09 917.553 1001.09C889.667 1001.09 867.062 978.602 867.062 950.862C867.062 923.121 889.667 900.633 917.553 900.633C945.439 900.633 968.045 923.121 968.045 950.862Z" class="colorf4ad5e svgShape"></path><path fill="#f7f6f2" d="M715.461 1018.41L524.128 1177.82L524.128 1226.03C524.128 1246.5 540.813 1263.1 561.396 1263.1H1081.39L762.189 1017.5C748.335 1006.84 728.888 1007.22 715.461 1018.41Z" class="colorffffff svgShape"></path><path fill="#2c2c2c" fill-rule="evenodd" d="M757.629 1023.37C746.545 1014.84 730.988 1015.14 720.246 1024.09L531.581 1181.28L531.581 1226.03C531.581 1242.41 544.929 1255.69 561.395 1255.69H1059.57L757.629 1023.37ZM710.675 1012.72C726.788 999.299 750.124 998.848 766.749 1011.64L1103.21 1270.52H561.395C536.696 1270.52 516.674 1250.6 516.674 1226.03L516.674 1174.35L710.675 1012.72Z" clip-rule="evenodd" class="color032068 svgShape"></path><path fill="#f7f6f2" d="M103.301 1906.47C91.8572 2177.75 260.857 2474.74 356.785 2602.81C361.792 2609.49 369.649 2613.29 378.003 2613.29H449.321C465.501 2613.29 478.029 2598.9 475.9 2582.86C412.359 2104.32 236.252 1925.53 133.126 1885.37C118.486 1879.66 103.963 1890.77 103.301 1906.47Z" class="colorffffff svgShape"></path><path fill="#2c2c2c" fill-rule="evenodd" d="M129.861 1893.75C121.906 1890.65 112.737 1896.28 112.291 1906.85C106.648 2040.63 145.521 2181.29 198.059 2304.82C250.566 2428.27 316.423 2533.91 363.987 2597.41C367.234 2601.75 372.38 2604.29 378.003 2604.29H449.321C460.027 2604.29 468.398 2594.72 466.98 2584.04C403.605 2106.75 228.422 1932.14 129.861 1893.75ZM94.3106 1906.09C95.189 1885.27 115.068 1868.67 136.392 1876.98C244.083 1918.93 421.115 2101.89 484.82 2581.68C487.661 2603.07 470.975 2622.28 449.321 2622.28H378.003C366.919 2622.28 356.351 2617.24 349.583 2608.2C301.22 2543.63 234.613 2436.75 181.498 2311.86C128.416 2187.06 88.5105 2043.59 94.3106 1906.09Z" clip-rule="evenodd" class="color032068 svgShape"></path><path fill="#2c2c2c" d="M643.25 1744.71C421.267 1943.12 376.817 2408.12 377.462 2590.7C377.513 2605.26 389.467 2616.57 404.035 2616.57H470.068C480.061 2616.57 489.347 2610.87 493.968 2602.01C716.146 2176.08 693.287 1911.6 685.234 1764.15C684.051 1742.48 659.427 1730.25 643.25 1744.71Z" class="color032068 svgShape"></path><path fill="#f7f6f2" d="M818.524 2159.82C643.504 2243.46 505.587 2450.18 441.868 2575.75C433.016 2593.2 445.979 2613.29 465.542 2613.29H544.039C549.242 2613.29 554.385 2611.77 558.721 2608.89C749.415 2482.36 828.419 2294.33 851.077 2185.28C855.09 2165.97 836.321 2151.32 818.524 2159.82Z" class="colorffffff svgShape"></path><path fill="#2c2c2c" fill-rule="evenodd" d="M842.267 2183.45C844.757 2171.47 833.519 2162.63 822.404 2167.94C736.537 2208.97 659.287 2280.48 595.395 2357.79C531.564 2435.03 481.505 2517.53 449.893 2579.83C444.241 2590.96 452.328 2604.29 465.543 2604.29H544.039C547.509 2604.29 550.915 2603.27 553.746 2601.39L558.721 2608.89L553.746 2601.39C741.965 2476.5 819.954 2290.84 842.267 2183.45ZM814.644 2151.7C839.123 2140 865.423 2160.47 859.888 2187.11C836.885 2297.81 756.866 2488.21 563.697 2616.39C557.856 2620.26 550.976 2622.28 544.039 2622.28H465.543C439.63 2622.28 421.791 2595.43 433.844 2571.68C465.951 2508.41 516.71 2424.75 581.522 2346.33C646.273 2267.98 725.491 2194.31 814.644 2151.7Z" clip-rule="evenodd" class="color032068 svgShape"></path><path fill="#2c2c2c" fill-rule="evenodd" d="M197.895 1990.35C234.708 2040.31 269.389 2108.72 300.487 2182.74C321.549 2232.87 341.046 2285.77 358.509 2337.58L375.884 2282.09L393.058 2287.46L368.202 2366.85C384.165 2415.91 398.196 2463.35 409.879 2505.77C420.673 2544.97 429.472 2579.92 435.945 2607.98L418.409 2612.02C412.223 2585.22 403.873 2551.96 393.651 2514.64L331.516 2486.81L338.873 2470.38L387.391 2492.12C376.644 2454 364.154 2412.44 350.201 2369.7C331.166 2311.38 309.424 2250.91 285.688 2193.99L201.833 2175.3L205.749 2157.73L277.041 2173.63C248.004 2106.47 216.366 2045.76 183.406 2001.03L197.895 1990.35Z" clip-rule="evenodd" class="color032068 svgShape"></path><path fill="#f7f6f2" fill-rule="evenodd" d="M573.331 2051.83C586.344 2005.17 598.731 1962.94 609.871 1928.08C622.805 1887.61 633.857 1857.71 642.085 1842.22L626.192 1833.78C617.102 1850.89 605.62 1882.26 592.728 1922.61C579.762 1963.18 565.165 2013.51 549.905 2068.99C539.257 2107.71 528.279 2148.96 517.296 2191.2L491.304 2130.14L474.745 2137.19L509.902 2219.79C496.63 2271.35 483.457 2323.87 470.96 2374.61C449.324 2462.45 429.712 2544.97 415.126 2607.97L432.659 2612.03C447.011 2550.04 466.24 2469.1 487.477 2382.8L575.97 2335.41L567.474 2319.55L493.282 2359.28C504.546 2313.77 516.285 2267.14 528.092 2221.32C540.93 2171.49 553.846 2122.62 566.314 2077.2L638.827 2032.93L629.45 2017.57L573.331 2051.83Z" clip-rule="evenodd" class="colorffffff svgShape"></path><path fill="#2c2c2c" fill-rule="evenodd" d="M714.41 2308.16C736.282 2285.42 757.659 2265.25 777.754 2249.08L766.47 2235.06C740.019 2256.35 711.788 2284.01 683.446 2314.82C665.082 2334.78 646.619 2356.13 628.503 2378.01L633.17 2348.6L615.396 2345.78L605.863 2405.85C582.002 2435.68 559.081 2465.88 538.181 2494.42C505.548 2538.98 477.802 2579.54 459.054 2608.38L474.143 2618.19C492.182 2590.44 518.729 2551.59 550.009 2508.74H614.377V2490.74H563.252C581.538 2466.1 601.144 2440.51 621.399 2415.24C645.272 2385.45 670.021 2356.14 694.549 2329.34L757.023 2319.96L754.35 2302.16L714.41 2308.16Z" clip-rule="evenodd" class="color032068 svgShape"></path><path fill="#f7b832" d="M489.81 459L509.655 511.029C510.863 514.195 510.198 517.706 507.931 520.132L479.101 550.99C472.898 557.629 479.867 568.349 488.707 565.765L530.547 553.538C533.602 552.645 536.957 553.423 539.374 555.583L575.486 587.868C582.275 593.938 592.655 587.839 590.25 579.194L576.939 531.347C576.157 528.538 576.788 525.571 578.634 523.379L603.832 493.459C609.508 486.718 602.6 476.555 594 478.995L556.661 489.588C553.663 490.438 550.384 489.687 547.991 487.602L504.221 449.443C497.062 443.202 486.465 450.23 489.81 459zM288.074 1364.64L274.715 1381.12C273.902 1382.13 272.577 1382.61 271.279 1382.38L254.768 1379.4C251.216 1378.75 249.073 1383.05 251.814 1385.32L264.791 1396.06C265.738 1396.84 266.185 1398.05 265.968 1399.24L262.712 1416.94C262.1 1420.27 266.354 1422.33 268.762 1419.87L282.092 1406.26C282.874 1405.47 284.009 1405.08 285.139 1405.23L300.565 1407.25C304.04 1407.71 306.008 1403.53 303.366 1401.31L291.894 1391.67C290.972 1390.89 290.532 1389.72 290.73 1388.55L294.347 1367.29C294.939 1363.81 290.326 1361.87 288.074 1364.64z" class="colorf4ad5e svgShape"></path><path fill="#f7f6f2" d="M1293.89 1935.27L1545.08 2505.68C1557.69 2534.32 1536.72 2566.47 1505.43 2566.47H738.939C721.335 2566.47 705.481 2555.82 698.828 2539.52L465.952 1969.1C454.317 1940.61 475.28 1909.4 506.063 1909.4H1254.24C1271.42 1909.4 1286.97 1919.55 1293.89 1935.27Z" class="colorffffff svgShape"></path><path fill="#2c2c2c" fill-rule="evenodd" d="M1254.24 1918.4C1267.85 1918.4 1280.17 1926.44 1285.66 1938.89L1536.85 2509.31C1546.84 2532 1530.22 2557.47 1505.43 2557.47H738.939C724.991 2557.47 712.43 2549.03 707.159 2536.12L474.283 1965.7C465.064 1943.12 481.674 1918.4 506.063 1918.4H1254.24ZM1302.13 1931.64C1293.77 1912.66 1274.98 1900.41 1254.24 1900.41H506.063C468.887 1900.41 443.57 1938.09 457.621 1972.51L690.497 2542.92C698.533 2562.6 717.679 2575.47 738.939 2575.47H1505.43C1543.22 2575.47 1568.55 2536.64 1553.32 2502.06L1302.13 1931.64Z" clip-rule="evenodd" class="color032068 svgShape"></path><path fill="#f7b832" d="M1059.77 2192.3C1045.68 2159.63 1013.51 2138.47 977.937 2138.47C913.871 2138.47 870.734 2204.05 896.104 2262.88L902.427 2277.54C916.515 2310.21 948.684 2331.37 984.26 2331.37C1048.33 2331.37 1091.46 2265.79 1066.09 2206.96L1059.77 2192.3Z" class="colorf4ad5e svgShape"></path><path fill="#2c2c2c" d="M750.971 2620.72H2081.23C2102.87 2620.72 2120.42 2603.18 2120.42 2581.54C2120.42 2559.9 2102.87 2542.36 2081.23 2542.36H750.972C722.894 2542.36 703.929 2571.02 714.909 2596.86C721.055 2611.33 735.253 2620.72 750.971 2620.72Z" class="color032068 svgShape"></path></svg>